<svg width="33" height="32" viewBox="0 0 33 32" fill="none" xmlns="http://www.w3.org/2000/svg">
<path fill-rule="evenodd" clip-rule="evenodd" d="M32.3342 15.9999C32.3342 24.8364 25.1703 31.9999 16.3334 31.9999C7.49641 31.9999 0.33252 24.8364 0.33252 15.9999C0.33252 7.16341 7.49641 -0.000108719 16.3334 -0.000108719C25.1703 -0.000108719 32.3342 7.16341 32.3342 15.9999ZM24.1851 12.6512C24.81 12.0264 24.81 11.0133 24.1851 10.3885C23.5603 9.76373 22.5471 9.76373 21.9223 10.3885L13.9332 18.3772L10.7444 15.1885C10.1196 14.5637 9.10641 14.5637 8.48158 15.1885C7.85675 15.8133 7.85675 16.8265 8.48158 17.4513L12.8018 21.7712C13.4266 22.396 14.4398 22.396 15.0646 21.7712L24.1851 12.6512Z" fill="#121212"/>
</svg>
