<svg width="21" height="18" viewBox="0 0 21 18" fill="none" xmlns="http://www.w3.org/2000/svg">
<path d="M2.5943 7.5H18.2189M6.06643 2.25V3.75M14.7468 2.25V3.75M5.372 15.75H15.4412C16.4135 15.75 16.8997 15.75 17.271 15.5865C17.5976 15.4427 17.8633 15.2132 18.0297 14.931C18.2189 14.6102 18.2189 14.1901 18.2189 13.35V6.15C18.2189 5.30992 18.2189 4.88988 18.0297 4.56902C17.8633 4.28677 17.5976 4.0573 17.271 3.91349C16.8997 3.75 16.4135 3.75 15.4412 3.75H5.372C4.39972 3.75 3.91357 3.75 3.54221 3.91349C3.21554 4.0573 2.94996 4.28677 2.78352 4.56902C2.5943 4.88988 2.5943 5.30992 2.5943 6.15V13.35C2.5943 14.1901 2.5943 14.6102 2.78352 14.931C2.94996 15.2132 3.21554 15.4427 3.54221 15.5865C3.91357 15.75 4.39971 15.75 5.372 15.75Z" stroke="black" stroke-linecap="round" stroke-linejoin="round"/>
</svg>
