<svg width="42" height="42" viewBox="0 0 42 42" fill="none" xmlns="http://www.w3.org/2000/svg">
<path d="M14.6003 27.8678C21.7434 27.8678 27.534 22.0771 27.534 14.9339C27.534 7.7907 21.7434 2 14.6003 2C7.45715 2 1.6665 7.7907 1.6665 14.9339C1.6665 22.0771 7.45715 27.8678 14.6003 27.8678Z" stroke="#121212" stroke-width="2.34457" stroke-linecap="round" stroke-linejoin="round"/>
<path d="M26.7922 27.1284L23.7407 24.0781" stroke="#121212" stroke-width="2" stroke-linecap="round" stroke-linejoin="round"/>
<path d="M33.6776 27.1294C31.7773 25.229 28.6962 25.229 26.7959 27.1294C24.8955 29.0298 24.8955 32.1109 26.7959 34.0112L31.3442 38.5596C33.2445 40.46 36.3256 40.46 38.2259 38.5596C40.1263 36.6592 40.1263 33.5781 38.2259 31.6778L33.6776 27.1294Z" stroke="#121212" stroke-width="2" stroke-linecap="round" stroke-linejoin="round"/>
<path d="M14.6003 27.8678C21.7434 27.8678 27.534 22.0771 27.534 14.9339C27.534 7.7907 21.7434 2 14.6003 2C7.45715 2 1.6665 7.7907 1.6665 14.9339C1.6665 22.0771 7.45715 27.8678 14.6003 27.8678Z" fill="#121212"/>
<path d="M15.7456 6.93359C19.5309 6.93359 22.5999 10.0027 22.5999 13.788" stroke="white" stroke-width="2.34457" stroke-linecap="round" stroke-linejoin="round"/>
</svg>
