<svg width="42" height="44" viewBox="0 0 42 44" fill="none" xmlns="http://www.w3.org/2000/svg">
<path d="M30.8708 6.62035L24.734 10.6869C23.9207 9.42996 22.5899 8.61665 20.9632 8.61665C18.5233 8.61665 16.4531 10.613 16.4531 13.1268C16.4531 14.0141 16.7488 14.9013 17.1925 15.5667L11.0557 19.6333C9.87267 17.7849 9.1333 15.4928 9.1333 13.1268C9.1333 6.62035 14.4568 1.29688 20.9632 1.29688C25.1037 1.29688 28.8006 3.44105 30.8708 6.62035Z" fill="#121212"/>
<path d="M30.8708 6.62035C32.1278 8.46878 32.7932 10.6869 32.7932 13.1268C32.7932 19.6333 27.4697 24.9568 20.9632 24.9568C16.8228 24.9568 13.1998 22.8126 11.0557 19.6333C9.87267 17.7849 9.1333 15.4928 9.1333 13.1268C9.1333 6.62035 14.4568 1.29688 20.9632 1.29688C25.1037 1.29688 28.8006 3.44105 30.8708 6.62035Z" stroke="#121212" stroke-width="2" stroke-miterlimit="10" stroke-linecap="round" stroke-linejoin="round"/>
<path d="M30.8708 6.62109L24.734 10.6876C23.9207 9.43071 22.5899 8.6174 20.9632 8.6174C18.5233 8.6174 16.4531 10.6137 16.4531 13.1276C16.4531 14.0148 16.7488 14.9021 17.1925 15.5675L11.0557 19.634" stroke="#121212" stroke-width="2" stroke-miterlimit="10" stroke-linecap="round" stroke-linejoin="round"/>
<path d="M41 42.7018L38.8558 31.3155C38.3383 27.6926 35.2329 24.9569 31.536 24.9569H20.963H10.39C6.69316 24.9569 3.5878 27.6187 3.07024 31.3155L1 42.7018" stroke="#121212" stroke-width="2" stroke-miterlimit="10" stroke-linecap="round" stroke-linejoin="round"/>
</svg>
