<svg width="16" height="16" viewBox="0 0 16 16" fill="none" xmlns="http://www.w3.org/2000/svg">
<path d="M13.7067 5.04735L8.37333 1.44735C8.26309 1.37283 8.13307 1.33301 8 1.33301C7.86693 1.33301 7.73691 1.37283 7.62667 1.44735L2.29333 5.04735C2.20295 5.10844 2.12895 5.19077 2.0778 5.28713C2.02666 5.38349 1.99994 5.49092 2 5.60001V14C2 14.1768 2.07024 14.3464 2.19526 14.4714C2.32029 14.5964 2.48986 14.6667 2.66667 14.6667H13.3333C13.5101 14.6667 13.6797 14.5964 13.8047 14.4714C13.9298 14.3464 14 14.1768 14 14V5.60001C14.0001 5.49092 13.9733 5.38349 13.9222 5.28713C13.8711 5.19077 13.797 5.10844 13.7067 5.04735ZM12.6667 13.3333H3.33333V5.95468L8 2.80401L12.6667 5.95468V13.3333ZM8.66667 6.66668V8.00001H10V9.33335H8.66667V10.6667H7.33333V9.33335H6V8.00001H7.33333V6.66668H8.66667Z" fill="#121212" fill-opacity="0.6"/>
</svg>
