<svg width="124" height="19" viewBox="0 0 124 19" fill="none" xmlns="http://www.w3.org/2000/svg">
<path d="M9.55078 18.3184C4.01367 18.3184 0 15.2715 0 9.76367C0 4.28516 4.07227 0.59375 10.1367 0.59375C11.8359 0.59375 13.7988 0.974609 15.0293 1.56055L15.1758 5.60352L13.5352 5.69141L12.627 3.02539C11.8359 2.55664 10.6934 2.38086 9.84375 2.38086C6.03516 2.38086 4.13086 5.13477 4.13086 9.03125C4.13086 13.748 6.76758 16.502 10.1367 16.502C10.6934 16.502 11.4258 16.3848 12.0703 16.1211V14.3047C12.0703 13.3379 12.0117 12.2832 11.9531 11.7559L9.90234 11.375L9.99023 9.96875H16.7578L16.8457 11.3164L15.4395 11.7266C15.4102 11.9902 15.4395 12.9277 15.4395 13.8945C15.4395 14.6855 15.4688 15.5059 15.5273 16.7363C13.8867 17.7617 11.6016 18.3184 9.55078 18.3184Z" fill="#121212"/>
<path d="M24.7055 18.2891C20.7211 18.2891 17.9965 15.5938 17.9965 11.7559C17.9965 7.5957 21.2191 5.04688 24.8227 5.04688C28.6313 5.04688 31.2094 7.71289 31.2094 11.5215C31.2094 15.3301 28.3383 18.2891 24.7055 18.2891ZM24.9984 16.5898C26.6391 16.5898 27.6352 14.9492 27.6352 12.3418C27.6352 8.97266 26.3461 6.6582 24.4125 6.6582C22.7133 6.6582 21.6293 8.38672 21.6293 11.0527C21.6293 14.2461 23.0648 16.5898 24.9984 16.5898Z" fill="#121212"/>
<path d="M50.4738 18.2305C49.1555 18.1426 47.3684 18.0547 46.4602 18.0547H37.4367L37.3488 16.707L39.1945 16.2676C39.2824 15.9746 39.341 14.1289 39.341 11.8145V7.12695C39.341 4.75391 39.2824 2.9082 39.1945 2.67383L37.3488 2.20508L37.4367 0.857422H45.3469L45.4348 2.26367L43.0031 2.67383C42.9152 2.87891 42.8273 4.54883 42.8273 7.12695V11.8145C42.8273 14.0117 42.8566 15.4766 42.9152 15.9453C43.5305 16.0625 44.1457 16.0918 45.1418 16.0918H46.5187C47.4562 16.0918 48.0715 16.0039 48.5695 15.916L50.1809 12.8398L51.8215 13.25L50.4738 18.2305Z" fill="#121212"/>
<path d="M58.7438 18.2891C54.7594 18.2891 52.0348 15.5938 52.0348 11.7559C52.0348 7.5957 55.2574 5.04688 58.8609 5.04688C62.6695 5.04688 65.2477 7.71289 65.2477 11.5215C65.2477 15.3301 62.3766 18.2891 58.7438 18.2891ZM59.0367 16.5898C60.6773 16.5898 61.6734 14.9492 61.6734 12.3418C61.6734 8.97266 60.3844 6.6582 58.4508 6.6582C56.7516 6.6582 55.6676 8.38672 55.6676 11.0527C55.6676 14.2461 57.1031 16.5898 59.0367 16.5898Z" fill="#121212"/>
<path d="M72.9023 18.2891C69.3281 18.2891 66.4863 15.7402 66.4863 11.9609C66.4863 8.21094 69.4453 5.04688 73.5469 5.04688C76.125 5.04688 77.9121 6.18945 77.9121 7.5957C77.9121 8.44531 77.3262 8.94336 76.5059 8.94336C75.8027 8.94336 75.3633 8.70898 74.6602 8.06445L73.0488 6.59961C71.4668 6.83398 70.0898 8.35742 70.0898 11.082C70.0898 14.1289 71.7891 15.7402 74.0156 15.7402C75.2754 15.7402 76.3008 15.3008 77.3262 14.0703L78.2051 14.8613C77.0918 17.1465 75.1289 18.2891 72.9023 18.2891Z" fill="#121212"/>
<path d="M91.9242 15.5938L93.8285 16.0332V17.2051L89.2289 18.4062L88.5551 17.9961L88.5844 16.0332L88.4965 16.0039C87.3539 17.7324 86.0941 18.3184 84.7172 18.3184C81.9633 18.3184 80.0297 16.6191 80.0297 13.1621V10.6719C80.0297 9.88086 79.9711 8.97266 79.8832 7.97656L77.891 7.56641V6.36523L82.7836 5.10547L83.4867 5.60352C83.3988 6.77539 83.3402 8.41602 83.3402 10.0566L83.3109 12.7812C83.3109 14.9199 84.3656 15.8281 85.977 15.8281C86.8266 15.8281 87.8227 15.3887 88.4965 14.3047V11.1699C88.4965 9.93945 88.4379 8.88477 88.3207 7.97656L86.182 7.56641V6.36523L91.1625 5.10547L91.8363 5.57422C91.7777 6.86328 91.7484 8.09375 91.7484 9.88086V12.1367C91.7484 13.4844 91.807 14.7734 91.9242 15.5938Z" fill="#121212"/>
<path d="M94.0418 18.0547L93.9539 16.7949L95.7703 16.3262C95.8289 16.0918 95.8875 15.0664 95.9168 13.3379L95.9461 11.1113C95.9461 9.93945 95.8582 8.88477 95.6824 7.97656L93.8074 7.56641V6.36523L98.5828 5.10547L99.2859 5.60352L99.1102 7.24414L99.198 7.27344C100.429 5.7207 101.776 5.04688 103.212 5.04688C104.677 5.04688 106.112 5.7793 106.903 7.33203C108.163 5.83789 109.598 5.04688 111.239 5.04688C113.993 5.04688 115.839 7.09766 115.839 10.2324L115.868 13.3379C115.868 14.6855 115.927 15.9746 116.044 16.3262L117.86 16.7949L117.772 18.0547H111.005L110.917 16.7949L112.499 16.3262C112.587 15.8867 112.645 14.6562 112.645 13.4258L112.616 10.7012C112.616 8.35742 111.386 7.47852 110.038 7.47852C108.983 7.47852 108.075 7.91797 107.372 8.79688C107.46 9.26562 107.518 9.76367 107.518 10.291L107.577 13.3379C107.577 14.6855 107.606 15.9746 107.723 16.3262L109.393 16.7949L109.305 18.0547H102.714L102.626 16.7949L104.179 16.3262C104.266 15.8867 104.325 14.6855 104.325 13.4258L104.296 10.5254C104.296 8.29883 103.182 7.47852 101.835 7.47852C100.839 7.47852 99.8426 7.97656 99.198 8.91406V13.25C99.198 14.7148 99.2566 16.0332 99.3738 16.3262L101.044 16.7949L100.956 18.0547H94.0418Z" fill="#121212"/>
<path d="M121.325 18.3477C119.978 18.3477 118.894 17.3223 118.894 15.9746C118.894 14.627 119.978 13.5723 121.325 13.5723C122.702 13.5723 123.786 14.627 123.786 15.9746C123.786 17.3223 122.702 18.3477 121.325 18.3477Z" fill="#121212"/>
</svg>
