<svg width="16" height="16" viewBox="0 0 16 16" fill="none" xmlns="http://www.w3.org/2000/svg">
<path d="M14 6.66699C14 11.3337 8 15.3337 8 15.3337C8 15.3337 2 11.3337 2 6.66699C2 5.07569 2.63214 3.54957 3.75736 2.42435C4.88258 1.29913 6.4087 0.666992 8 0.666992C9.5913 0.666992 11.1174 1.29913 12.2426 2.42435C13.3679 3.54957 14 5.07569 14 6.66699Z" stroke="#121212" stroke-opacity="0.6" stroke-width="1.32353" stroke-linecap="round" stroke-linejoin="round"/>
<path d="M8 8.66711C9.10457 8.66711 10 7.77168 10 6.66711C10 5.56254 9.10457 4.66711 8 4.66711C6.89543 4.66711 6 5.56254 6 6.66711C6 7.77168 6.89543 8.66711 8 8.66711Z" stroke="#121212" stroke-opacity="0.6" stroke-width="1.32353" stroke-linecap="round" stroke-linejoin="round"/>
</svg>
