<svg width="53" height="45" viewBox="0 0 53 45" fill="none" xmlns="http://www.w3.org/2000/svg">
<path d="M50.25 0.25L52.375 4.875C43.75 8.625 40.125 13.25 40.125 18.875C40.125 27 49.5 26.375 49.5 35.125C49.5 40.125 45.375 44.25 39.5 44.25C34 44.25 28.125 40.125 28.125 29.625C28.125 17.375 36 6 50.25 0.25ZM22.875 0.25L25 4.875C16.375 8.625 12.75 13.25 12.75 18.875C12.75 27 22.125 26.375 22.125 35.125C22.125 40.125 18 44.25 12.125 44.25C6.625 44.25 0.75 40.125 0.75 29.625C0.75 17.375 8.625 6 22.875 0.25Z" fill="#121212"/>
</svg>
