<svg width="18" height="18" viewBox="0 0 18 18" fill="none" xmlns="http://www.w3.org/2000/svg">
<path d="M16.1481 15.3519L12.6276 11.8321C13.648 10.6071 14.1568 9.03577 14.0482 7.44512C13.9396 5.85447 13.2219 4.36692 12.0445 3.29193C10.8671 2.21693 9.32053 1.63725 7.72659 1.67348C6.13265 1.7097 4.61404 2.35904 3.48666 3.48642C2.35929 4.6138 1.70995 6.13241 1.67372 7.72635C1.6375 9.32029 2.21718 10.8668 3.29217 12.0443C4.36717 13.2217 5.85472 13.9394 7.44536 14.048C9.03601 14.1566 10.6073 13.6477 11.8323 12.6273L15.3522 16.1479C15.4045 16.2001 15.4665 16.2416 15.5348 16.2699C15.6031 16.2982 15.6763 16.3127 15.7502 16.3127C15.8241 16.3127 15.8973 16.2982 15.9655 16.2699C16.0338 16.2416 16.0959 16.2001 16.1481 16.1479C16.2004 16.0956 16.2418 16.0336 16.2701 15.9653C16.2984 15.897 16.313 15.8238 16.313 15.7499C16.313 15.676 16.2984 15.6028 16.2701 15.5345C16.2418 15.4663 16.2004 15.4042 16.1481 15.3519ZM2.81266 7.87492C2.81266 6.87365 3.10957 5.89487 3.66585 5.06234C4.22212 4.22982 5.01277 3.58094 5.93783 3.19778C6.86288 2.81461 7.88078 2.71435 8.8628 2.90969C9.84483 3.10503 10.7469 3.58718 11.4549 4.29519C12.1629 5.00319 12.645 5.90524 12.8404 6.88727C13.0357 7.8693 12.9355 8.8872 12.5523 9.81225C12.1691 10.7373 11.5203 11.528 10.6877 12.0842C9.85521 12.6405 8.87643 12.9374 7.87516 12.9374C6.53296 12.9359 5.24616 12.4021 4.29708 11.453C3.348 10.5039 2.81415 9.21712 2.81266 7.87492Z" fill="black"/>
</svg>
