<svg width="24" height="24" viewBox="0 0 24 24" fill="none" xmlns="http://www.w3.org/2000/svg">
<g clip-path="url(#clip0_1_2408)">
<path d="M23.7304 0.567188C23.4668 0.201422 23.0441 0 22.5403 0C22.3038 0 22.0502 0.0445781 21.7867 0.132469L1.37602 6.936C0.671023 7.17098 0.185117 7.65127 0.0428511 8.25366C-0.0994145 8.85605 0.120382 9.50306 0.645898 10.0287C0.697273 10.0801 0.756335 10.1233 0.820929 10.1566L9.4141 14.5861L13.8438 23.1794C13.8771 23.244 13.9202 23.303 13.9716 23.3543C14.3939 23.7767 14.8809 23.9999 15.3802 24H15.3803C16.1363 24 16.7817 23.4727 17.0644 22.6242L23.8681 2.21367C24.0819 1.57177 24.0331 0.987047 23.7304 0.567188ZM1.41146 8.57686C1.43837 8.46277 1.59521 8.3453 1.82068 8.27011L21.1934 1.81252L9.80199 13.2039L1.57355 8.9625C1.44962 8.81761 1.38835 8.67474 1.41146 8.57686ZM15.7303 22.1797C15.6635 22.3799 15.5366 22.5938 15.3803 22.5938C15.2856 22.5938 15.1617 22.5325 15.038 22.4267L10.7964 14.1983L22.1881 2.80655L15.7303 22.1797Z" fill="black"/>
</g>
<defs>
<clipPath id="clip0_1_2408">
<rect width="24" height="24" fill="white"/>
</clipPath>
</defs>
</svg>
