<svg width="161" height="126" viewBox="0 0 161 126" fill="none" xmlns="http://www.w3.org/2000/svg">
<rect width="161" height="126" rx="24" fill="#121212"/>
<path d="M19.98 26.79V26.37H30.02V26.79H19.98Z" fill="white"/>
<path d="M37.1219 30.1C36.6419 30.1 36.1886 30.0067 35.7619 29.82C35.3353 29.6334 34.9619 29.3767 34.6419 29.05C34.3219 28.7167 34.0686 28.3334 33.8819 27.9C33.7019 27.46 33.6119 26.99 33.6119 26.49C33.6119 25.99 33.7019 25.5234 33.8819 25.09C34.0686 24.6567 34.3219 24.2767 34.6419 23.95C34.9686 23.6167 35.3486 23.36 35.7819 23.18C36.2219 22.9934 36.6953 22.9 37.2019 22.9C37.7553 22.9 38.2686 23.0067 38.7419 23.22C39.2153 23.4334 39.6119 23.7367 39.9319 24.13L39.1519 24.91C38.9453 24.6167 38.6686 24.3934 38.3219 24.24C37.9753 24.08 37.6019 24 37.2019 24C36.7219 24 36.2986 24.1067 35.9319 24.32C35.5719 24.5267 35.2919 24.8167 35.0919 25.19C34.8919 25.5634 34.7919 25.9967 34.7919 26.49C34.7919 26.9834 34.8919 27.42 35.0919 27.8C35.2986 28.1734 35.5753 28.4667 35.9219 28.68C36.2686 28.8934 36.6619 29 37.1019 29C37.5686 29 37.9686 28.9167 38.3019 28.75C38.6419 28.5767 38.9019 28.3234 39.0819 27.99C39.2619 27.65 39.3519 27.2334 39.3519 26.74L40.0719 27.26H37.0819V26.21H40.5419V26.37C40.5419 27.2034 40.3919 27.8967 40.0919 28.45C39.7986 29.0034 39.3953 29.4167 38.8819 29.69C38.3686 29.9634 37.7819 30.1 37.1219 30.1Z" fill="white"/>
<path d="M44.9865 30.1C44.4599 30.1 43.9865 29.98 43.5665 29.74C43.1465 29.5 42.8132 29.1734 42.5665 28.76C42.3265 28.34 42.2065 27.8667 42.2065 27.34V23H43.3565V27.33C43.3565 27.67 43.4265 27.9667 43.5665 28.22C43.7132 28.4667 43.9099 28.66 44.1565 28.8C44.4032 28.9334 44.6799 29 44.9865 29C45.2999 29 45.5765 28.9334 45.8165 28.8C46.0565 28.66 46.2465 28.4667 46.3865 28.22C46.5265 27.9667 46.5965 27.6734 46.5965 27.34V23H47.7465V27.35C47.7465 27.8767 47.6265 28.3467 47.3865 28.76C47.1465 29.1734 46.8199 29.5 46.4065 29.74C45.9932 29.98 45.5199 30.1 44.9865 30.1Z" fill="white"/>
<path d="M49.0365 30L51.9165 23H52.7165L55.5765 30H54.3365L52.0965 24.33H52.5165L50.2565 30H49.0365ZM50.4565 28.65V27.65H54.1665V28.65H50.4565Z" fill="white"/>
<path d="M57.8898 27.03V26.08H59.6598C60.0132 26.08 60.2865 25.99 60.4798 25.81C60.6798 25.6234 60.7798 25.3667 60.7798 25.04C60.7798 24.7467 60.6832 24.5 60.4898 24.3C60.2965 24.1 60.0232 24 59.6698 24H57.8898V23H59.7198C60.1598 23 60.5465 23.09 60.8798 23.27C61.2132 23.4434 61.4698 23.6834 61.6498 23.99C61.8365 24.29 61.9298 24.6334 61.9298 25.02C61.9298 25.4267 61.8365 25.78 61.6498 26.08C61.4698 26.38 61.2132 26.6134 60.8798 26.78C60.5465 26.9467 60.1598 27.03 59.7198 27.03H57.8898ZM57.0998 30V23H58.2498V30H57.0998ZM60.9398 30L58.4898 26.96L59.5598 26.57L62.3898 30H60.9398Z" fill="white"/>
<path d="M63.0978 30L65.9778 23H66.7778L69.6378 30H68.3978L66.1578 24.33H66.5778L64.3178 30H63.0978ZM64.5178 28.65V27.65H68.2278V28.65H64.5178Z" fill="white"/>
<path d="M71.1612 30V23H71.9612L72.3112 24.32V30H71.1612ZM76.0112 30L71.8212 24.53L71.9612 23L76.1512 28.47L76.0112 30ZM76.0112 30L75.6612 28.77V23H76.8112V30H76.0112Z" fill="white"/>
<path d="M80.6891 30V23.2H81.8391V30H80.6891ZM78.4091 24.05V23H84.1191V24.05H78.4091Z" fill="white"/>
<path d="M85.7205 30V23H86.8705V30H85.7205ZM86.5105 30V28.95H90.4305V30H86.5105ZM86.5105 26.93V25.92H90.0905V26.93H86.5105ZM86.5105 24.05V23H90.3805V24.05H86.5105Z" fill="white"/>
<path d="M92.219 30V23H93.369V30H92.219ZM93.009 30V28.95H96.929V30H93.009ZM93.009 26.93V25.92H96.589V26.93H93.009ZM93.009 24.05V23H96.879V24.05H93.009Z" fill="white"/>
<path d="M99.5074 30V28.95H101.347C101.827 28.95 102.247 28.8467 102.607 28.64C102.974 28.4334 103.257 28.1467 103.457 27.78C103.664 27.4067 103.767 26.9767 103.767 26.49C103.767 26.01 103.664 25.5867 103.457 25.22C103.251 24.8534 102.964 24.5667 102.597 24.36C102.237 24.1534 101.821 24.05 101.347 24.05H99.5074V23H101.377C101.884 23 102.354 23.09 102.787 23.27C103.221 23.4434 103.597 23.69 103.917 24.01C104.244 24.3234 104.497 24.6934 104.677 25.12C104.857 25.54 104.947 26 104.947 26.5C104.947 26.9934 104.857 27.4534 104.677 27.88C104.497 28.3067 104.247 28.68 103.927 29C103.607 29.3134 103.231 29.56 102.797 29.74C102.364 29.9134 101.897 30 101.397 30H99.5074ZM98.7174 30V23H99.8674V30H98.7174Z" fill="white"/>
<path d="M40.1953 66.211C40.1953 73.2031 34.4531 80 24.4531 80.7031L23.7109 78.125C29.8047 76.7578 33.0078 73.9844 33.9062 68.8672C32.3047 70.4688 30.4687 71.6016 28.789 71.6016C25.1562 71.6016 22.2656 68.5938 22.2656 64.8047C22.2656 60.2344 26.0547 56.7188 31.1719 56.7188C36.4844 56.7188 40.1953 61.0547 40.1953 66.211ZM28.0078 63.0078C28.0078 65.8203 29.2187 67.5 31.1719 67.5C32.3047 67.5 33.3594 67.0313 34.1406 66.4453C34.1797 66.1328 34.1797 65.8203 34.1797 65.4688C34.1797 62.1094 32.5781 59.2969 30.7422 59.2969C29.1797 59.2969 28.0078 60.9766 28.0078 63.0078Z" fill="white"/>
<path d="M61.8172 72.2656C61.8172 76.836 58.0281 80.3516 52.9109 80.3516C47.5984 80.3516 43.8875 76.0156 43.8875 70.8594C43.8875 63.8672 49.5906 57.0703 59.6297 56.3672L60.3328 58.9453C54.2781 60.3125 51.114 63.086 50.2156 68.1641C51.8172 66.6016 53.6531 65.4688 55.2547 65.4688C58.9265 65.4688 61.8172 68.4766 61.8172 72.2656ZM49.9422 71.6016C49.9422 74.961 51.4656 77.7735 53.3406 77.7735C54.9031 77.7735 56.075 76.0938 56.075 74.0625C56.075 71.25 54.864 69.5703 52.8719 69.5703C51.8172 69.5703 50.7234 70.0391 49.9812 70.586C49.9422 70.9375 49.9422 71.25 49.9422 71.6016Z" fill="white"/>
<path d="M70.5094 80.5078L67.8531 78.2422L85.1187 56.4844L87.814 58.75L70.5094 80.5078ZM69.9625 68.9063C66.2125 68.9063 63.5172 66.4063 63.5172 62.7735C63.5172 59.336 66.4859 56.6797 69.9625 56.6797C73.7515 56.6797 76.4859 59.1406 76.4859 62.7735C76.4859 66.2891 73.5562 68.9063 69.9625 68.9063ZM70.0406 65.3125C71.3297 65.3125 72.4234 64.375 72.4234 62.7344C72.4234 61.1328 71.3297 60.2344 70.0406 60.2344C68.7125 60.2344 67.6969 61.1719 67.6969 62.7344C67.6969 64.336 68.7125 65.3125 70.0406 65.3125ZM85.5875 80.3516C81.7984 80.3516 79.1422 77.8516 79.1422 74.2188C79.1422 70.8203 82.0719 68.125 85.5875 68.125C89.3375 68.125 92.0719 70.625 92.0719 74.2188C92.0719 77.7344 89.1422 80.3516 85.5875 80.3516ZM85.6265 76.7578C86.9547 76.7578 88.0484 75.8203 88.0484 74.1797C88.0484 72.6172 86.9547 71.6797 85.6265 71.6797C84.3375 71.6797 83.3219 72.6563 83.3219 74.1797C83.3219 75.7813 84.3375 76.7578 85.6265 76.7578Z" fill="white"/>
<path d="M22.94 104.14C22.38 104.14 21.8853 104.033 21.456 103.818C21.036 103.594 20.6906 103.295 20.42 102.922L21.344 102.068C21.5213 102.329 21.7406 102.53 22.002 102.67C22.2726 102.81 22.5713 102.88 22.898 102.88C23.2246 102.88 23.514 102.81 23.766 102.67C24.018 102.53 24.214 102.325 24.354 102.054C24.5033 101.774 24.578 101.433 24.578 101.032V94.284H25.894V100.962C25.894 101.606 25.7633 102.166 25.502 102.642C25.25 103.118 24.9 103.487 24.452 103.748C24.0133 104.009 23.5093 104.14 22.94 104.14Z" fill="white"/>
<path d="M30.8936 104.14C30.2403 104.14 29.6523 103.986 29.1296 103.678C28.607 103.37 28.1916 102.955 27.8836 102.432C27.5756 101.9 27.4216 101.307 27.4216 100.654C27.4216 100.01 27.5756 99.4314 27.8836 98.918C28.1916 98.3954 28.607 97.98 29.1296 97.672C29.6523 97.364 30.2403 97.21 30.8936 97.21C31.5376 97.21 32.121 97.364 32.6436 97.672C33.1756 97.9707 33.5956 98.3814 33.9036 98.904C34.2116 99.4267 34.3656 100.01 34.3656 100.654C34.3656 101.307 34.2116 101.9 33.9036 102.432C33.5956 102.955 33.1756 103.37 32.6436 103.678C32.121 103.986 31.5376 104.14 30.8936 104.14ZM30.8936 102.922C31.3136 102.922 31.687 102.824 32.0136 102.628C32.3403 102.432 32.597 102.166 32.7836 101.83C32.9703 101.485 33.0636 101.093 33.0636 100.654C33.0636 100.225 32.9656 99.842 32.7696 99.506C32.583 99.17 32.3263 98.9087 31.9996 98.722C31.6823 98.526 31.3136 98.428 30.8936 98.428C30.4736 98.428 30.1003 98.526 29.7736 98.722C29.447 98.9087 29.1903 99.17 29.0036 99.506C28.817 99.842 28.7236 100.225 28.7236 100.654C28.7236 101.093 28.817 101.485 29.0036 101.83C29.1903 102.166 29.447 102.432 29.7736 102.628C30.1003 102.824 30.4736 102.922 30.8936 102.922Z" fill="white"/>
<path d="M39.2853 104.14C38.7813 104.14 38.324 104.037 37.9133 103.832C37.512 103.617 37.19 103.323 36.9473 102.95C36.7046 102.577 36.5693 102.152 36.5413 101.676V99.674C36.5693 99.1887 36.7046 98.764 36.9473 98.4C37.1993 98.0267 37.526 97.7374 37.9273 97.532C38.338 97.3174 38.7906 97.21 39.2853 97.21C39.892 97.21 40.438 97.364 40.9233 97.672C41.418 97.98 41.8053 98.3954 42.0853 98.918C42.3653 99.4407 42.5053 100.029 42.5053 100.682C42.5053 101.335 42.3653 101.923 42.0853 102.446C41.8053 102.969 41.418 103.384 40.9233 103.692C40.438 103.991 39.892 104.14 39.2853 104.14ZM39.0753 102.95C39.4953 102.95 39.864 102.852 40.1813 102.656C40.4986 102.46 40.7506 102.194 40.9373 101.858C41.124 101.513 41.2173 101.116 41.2173 100.668C41.2173 100.229 41.124 99.8374 40.9373 99.492C40.7506 99.1467 40.4986 98.8807 40.1813 98.694C39.864 98.498 39.5 98.4 39.0893 98.4C38.6693 98.4 38.3006 98.498 37.9833 98.694C37.666 98.8807 37.4186 99.1467 37.2413 99.492C37.064 99.8374 36.9753 100.234 36.9753 100.682C36.9753 101.121 37.0593 101.513 37.2273 101.858C37.4046 102.194 37.652 102.46 37.9693 102.656C38.296 102.852 38.6646 102.95 39.0753 102.95ZM35.7853 104V94.004H37.0453V98.974L36.8073 100.584L37.0453 102.208V104H35.7853Z" fill="white"/>
<path d="M50.2479 104L46.3559 94.284H47.7839L50.9899 102.502H50.4719L53.7059 94.284H55.1199L51.1999 104H50.2479Z" fill="white"/>
<path d="M57.9317 104.14C57.325 104.14 56.7743 103.991 56.2797 103.692C55.785 103.384 55.393 102.969 55.1037 102.446C54.8237 101.923 54.6837 101.335 54.6837 100.682C54.6837 100.029 54.8237 99.4407 55.1037 98.918C55.393 98.3954 55.7803 97.98 56.2657 97.672C56.7603 97.364 57.3157 97.21 57.9317 97.21C58.4357 97.21 58.8837 97.3174 59.2757 97.532C59.677 97.7374 59.999 98.0267 60.2417 98.4C60.4843 98.764 60.6197 99.1887 60.6477 99.674V101.676C60.6197 102.152 60.4843 102.577 60.2417 102.95C60.0083 103.323 59.691 103.617 59.2897 103.832C58.8977 104.037 58.445 104.14 57.9317 104.14ZM58.1417 102.95C58.767 102.95 59.271 102.74 59.6537 102.32C60.0363 101.891 60.2277 101.345 60.2277 100.682C60.2277 100.225 60.139 99.828 59.9617 99.492C59.7937 99.1467 59.551 98.8807 59.2337 98.694C58.9163 98.498 58.5477 98.4 58.1277 98.4C57.7077 98.4 57.3343 98.498 57.0077 98.694C56.6903 98.89 56.4383 99.1607 56.2517 99.506C56.0743 99.842 55.9857 100.229 55.9857 100.668C55.9857 101.116 56.0743 101.513 56.2517 101.858C56.4383 102.194 56.695 102.46 57.0217 102.656C57.3483 102.852 57.7217 102.95 58.1417 102.95ZM60.1437 104V102.208L60.3817 100.584L60.1437 98.974V97.35H61.4177V104H60.1437Z" fill="white"/>
<path d="M66.2901 104.14C65.6368 104.14 65.0441 103.986 64.5121 103.678C63.9894 103.37 63.5741 102.955 63.2661 102.432C62.9674 101.9 62.8181 101.312 62.8181 100.668C62.8181 100.015 62.9674 99.4267 63.2661 98.904C63.5741 98.3814 63.9894 97.9707 64.5121 97.672C65.0441 97.364 65.6368 97.21 66.2901 97.21C66.8034 97.21 67.2794 97.308 67.7181 97.504C68.1568 97.6907 68.5348 97.966 68.8521 98.33L68.0121 99.17C67.8068 98.9274 67.5548 98.7454 67.2561 98.624C66.9668 98.4934 66.6448 98.428 66.2901 98.428C65.8701 98.428 65.4968 98.526 65.1701 98.722C64.8434 98.9087 64.5868 99.17 64.4001 99.506C64.2134 99.842 64.1201 100.229 64.1201 100.668C64.1201 101.107 64.2134 101.494 64.4001 101.83C64.5868 102.166 64.8434 102.432 65.1701 102.628C65.4968 102.824 65.8701 102.922 66.2901 102.922C66.6448 102.922 66.9668 102.861 67.2561 102.74C67.5548 102.609 67.8114 102.423 68.0261 102.18L68.8521 103.02C68.5441 103.375 68.1661 103.65 67.7181 103.846C67.2794 104.042 66.8034 104.14 66.2901 104.14Z" fill="white"/>
<path d="M72.793 104.14C72.1863 104.14 71.6357 103.991 71.141 103.692C70.6463 103.384 70.2543 102.969 69.965 102.446C69.685 101.923 69.545 101.335 69.545 100.682C69.545 100.029 69.685 99.4407 69.965 98.918C70.2543 98.3954 70.6417 97.98 71.127 97.672C71.6217 97.364 72.177 97.21 72.793 97.21C73.297 97.21 73.745 97.3174 74.137 97.532C74.5383 97.7374 74.8603 98.0267 75.103 98.4C75.3457 98.764 75.481 99.1887 75.509 99.674V101.676C75.481 102.152 75.3457 102.577 75.103 102.95C74.8697 103.323 74.5523 103.617 74.151 103.832C73.759 104.037 73.3063 104.14 72.793 104.14ZM73.003 102.95C73.6283 102.95 74.1323 102.74 74.515 102.32C74.8977 101.891 75.089 101.345 75.089 100.682C75.089 100.225 75.0003 99.828 74.823 99.492C74.655 99.1467 74.4123 98.8807 74.095 98.694C73.7777 98.498 73.409 98.4 72.989 98.4C72.569 98.4 72.1957 98.498 71.869 98.694C71.5517 98.89 71.2997 99.1607 71.113 99.506C70.9357 99.842 70.847 100.229 70.847 100.668C70.847 101.116 70.9357 101.513 71.113 101.858C71.2997 102.194 71.5563 102.46 71.883 102.656C72.2097 102.852 72.583 102.95 73.003 102.95ZM75.005 104V102.208L75.243 100.584L75.005 98.974V97.35H76.279V104H75.005Z" fill="white"/>
<path d="M82.8174 104V100.122C82.8174 99.618 82.6588 99.2027 82.3414 98.876C82.0241 98.5494 81.6134 98.386 81.1094 98.386C80.7734 98.386 80.4748 98.4607 80.2134 98.61C79.9521 98.7594 79.7468 98.9647 79.5974 99.226C79.4481 99.4874 79.3734 99.786 79.3734 100.122L78.8554 99.828C78.8554 99.324 78.9674 98.876 79.1914 98.484C79.4154 98.092 79.7281 97.784 80.1294 97.56C80.5308 97.3267 80.9834 97.21 81.4874 97.21C81.9914 97.21 82.4348 97.336 82.8174 97.588C83.2094 97.84 83.5174 98.1714 83.7414 98.582C83.9654 98.9834 84.0774 99.4127 84.0774 99.87V104H82.8174ZM78.1134 104V97.35H79.3734V104H78.1134Z" fill="white"/>
<path d="M88.8214 104.14C88.168 104.14 87.5754 103.986 87.0434 103.678C86.5207 103.37 86.1054 102.955 85.7974 102.432C85.4987 101.9 85.3494 101.312 85.3494 100.668C85.3494 100.015 85.4987 99.4267 85.7974 98.904C86.1054 98.3814 86.5207 97.9707 87.0434 97.672C87.5754 97.364 88.168 97.21 88.8214 97.21C89.3347 97.21 89.8107 97.308 90.2494 97.504C90.688 97.6907 91.066 97.966 91.3834 98.33L90.5434 99.17C90.338 98.9274 90.086 98.7454 89.7874 98.624C89.498 98.4934 89.176 98.428 88.8214 98.428C88.4014 98.428 88.028 98.526 87.7014 98.722C87.3747 98.9087 87.118 99.17 86.9314 99.506C86.7447 99.842 86.6514 100.229 86.6514 100.668C86.6514 101.107 86.7447 101.494 86.9314 101.83C87.118 102.166 87.3747 102.432 87.7014 102.628C88.028 102.824 88.4014 102.922 88.8214 102.922C89.176 102.922 89.498 102.861 89.7874 102.74C90.086 102.609 90.3427 102.423 90.5574 102.18L91.3834 103.02C91.0754 103.375 90.6974 103.65 90.2494 103.846C89.8107 104.042 89.3347 104.14 88.8214 104.14Z" fill="white"/>
<path d="M92.647 104V97.35H93.907V104H92.647ZM93.277 96.02C93.0436 96.02 92.8523 95.9454 92.703 95.796C92.5536 95.6374 92.479 95.4414 92.479 95.208C92.479 94.984 92.5536 94.7974 92.703 94.648C92.8523 94.4894 93.0436 94.41 93.277 94.41C93.5103 94.41 93.7016 94.4894 93.851 94.648C94.0003 94.7974 94.075 94.984 94.075 95.208C94.075 95.4414 94.0003 95.6374 93.851 95.796C93.7016 95.9454 93.5103 96.02 93.277 96.02Z" fill="white"/>
<path d="M98.8438 104.14C98.1812 104.14 97.5838 103.991 97.0518 103.692C96.5198 103.384 96.0998 102.969 95.7918 102.446C95.4838 101.923 95.3298 101.331 95.3298 100.668C95.3298 100.015 95.4792 99.4267 95.7778 98.904C96.0858 98.3814 96.4965 97.9707 97.0098 97.672C97.5325 97.364 98.1158 97.21 98.7598 97.21C99.3758 97.21 99.9172 97.35 100.384 97.63C100.86 97.91 101.228 98.2974 101.49 98.792C101.76 99.2867 101.896 99.8467 101.896 100.472C101.896 100.565 101.891 100.668 101.882 100.78C101.872 100.883 101.854 101.004 101.826 101.144H96.2118V100.094H101.154L100.692 100.5C100.692 100.052 100.612 99.674 100.454 99.366C100.295 99.0487 100.071 98.806 99.7818 98.638C99.4925 98.4607 99.1425 98.372 98.7318 98.372C98.3025 98.372 97.9245 98.4654 97.5978 98.652C97.2712 98.8387 97.0192 99.1 96.8418 99.436C96.6645 99.772 96.5758 100.169 96.5758 100.626C96.5758 101.093 96.6692 101.503 96.8558 101.858C97.0425 102.203 97.3085 102.474 97.6538 102.67C97.9992 102.857 98.3958 102.95 98.8438 102.95C99.2172 102.95 99.5578 102.885 99.8658 102.754C100.183 102.623 100.454 102.427 100.678 102.166L101.49 102.992C101.172 103.365 100.78 103.65 100.314 103.846C99.8565 104.042 99.3665 104.14 98.8438 104.14Z" fill="white"/>
<path d="M105.384 104.14C105.01 104.14 104.656 104.093 104.32 104C103.993 103.897 103.69 103.757 103.41 103.58C103.13 103.393 102.887 103.174 102.682 102.922L103.494 102.11C103.736 102.409 104.016 102.633 104.334 102.782C104.651 102.922 105.006 102.992 105.398 102.992C105.79 102.992 106.093 102.927 106.308 102.796C106.522 102.656 106.63 102.465 106.63 102.222C106.63 101.979 106.541 101.793 106.364 101.662C106.196 101.522 105.976 101.41 105.706 101.326C105.435 101.233 105.146 101.144 104.838 101.06C104.539 100.967 104.254 100.85 103.984 100.71C103.713 100.57 103.489 100.379 103.312 100.136C103.144 99.8934 103.06 99.5714 103.06 99.17C103.06 98.7687 103.158 98.4234 103.354 98.134C103.55 97.8354 103.82 97.6067 104.166 97.448C104.52 97.2894 104.945 97.21 105.44 97.21C105.962 97.21 106.424 97.3034 106.826 97.49C107.236 97.6674 107.572 97.938 107.834 98.302L107.022 99.114C106.835 98.8714 106.602 98.6847 106.322 98.554C106.051 98.4234 105.743 98.358 105.398 98.358C105.034 98.358 104.754 98.4234 104.558 98.554C104.371 98.6754 104.278 98.848 104.278 99.072C104.278 99.296 104.362 99.4687 104.53 99.59C104.698 99.7114 104.917 99.814 105.188 99.898C105.468 99.982 105.757 100.071 106.056 100.164C106.354 100.248 106.639 100.365 106.91 100.514C107.18 100.663 107.4 100.864 107.568 101.116C107.745 101.368 107.834 101.699 107.834 102.11C107.834 102.735 107.61 103.23 107.162 103.594C106.723 103.958 106.13 104.14 105.384 104.14Z" fill="white"/>
</svg>
