<svg width="30" height="40" viewBox="0 0 30 40" fill="none" xmlns="http://www.w3.org/2000/svg">
<path d="M26.7846 26.5461C27.302 26.0547 27.714 25.4633 27.9955 24.8077C28.2771 24.1521 28.4222 23.446 28.4222 22.7326C28.4222 22.0191 28.2771 21.313 27.9955 20.6574C27.714 20.0018 27.302 19.4104 26.7846 18.9191C25.7256 17.9139 24.3211 17.3535 22.861 17.3535C21.4009 17.3535 19.9964 17.9139 18.9374 18.9191L14.9999 22.8565L11.0625 18.9191C10.0035 17.9139 8.59902 17.3535 7.13889 17.3535C5.67876 17.3535 4.27432 17.9139 3.21525 18.9191C2.69787 19.4104 2.28588 20.0018 2.00435 20.6574C1.72282 21.313 1.57764 22.0191 1.57764 22.7326C1.57764 23.446 1.72282 24.1521 2.00435 24.8077C2.28588 25.4633 2.69787 26.0547 3.21525 26.5461L14.9999 38.0003L26.7846 26.5461Z" stroke="#121212" stroke-width="2.35714" stroke-linecap="round" stroke-linejoin="round"/>
<path d="M15.0001 14.1438C16.6105 14.1438 18.1549 13.5041 19.2936 12.3654C20.4323 11.2267 21.072 9.68228 21.072 8.07191C21.072 6.46154 20.4323 4.91713 19.2936 3.77842C18.1549 2.63972 16.6105 2 15.0001 2C13.3898 2 11.8453 2.63972 10.7066 3.77842C9.56794 4.91713 8.92822 6.46154 8.92822 8.07191C8.92822 9.68228 9.56794 11.2267 10.7066 12.3654C11.8453 13.5041 13.3898 14.1438 15.0001 14.1438Z" fill="#121212" stroke="#121212" stroke-width="2.35714" stroke-linecap="round" stroke-linejoin="round"/>
</svg>
